HIERARCHY
ROOT Hips
{
  OFFSET 279.157 85.6768 304.565
  CHANNELS 6 Xposition Yposition Zposition Zrotation Xrotation Yrotation
  JOINT LeftUpLeg
  {
    OFFSET 8.64259 1.95398 -2.38835
    CHANNELS 3 Zrotation Xrotation Yrotation
    JOINT LeftLeg
    {
      OFFSET 43.7702 0 0
      CHANNELS 3 Zrotation Xrotation Yrotation
      JOINT LeftFoot
      {
        OFFSET 40.6238 0 0
        CHANNELS 3 Zrotation Xrotation Yrotation
        JOINT LeftToeBase
        {
          OFFSET 12.7242 0 0
          CHANNELS 3 Zrotation Xrotation Yrotation
          End Site
          {
            OFFSET 0 0 0
          }
        }
      }
    }
  }
  JOINT RightUpLeg
  {
    OFFSET -8.2249 1.95398 -2.59336
    CHANNELS 3 Zrotation Xrotation Yrotation
    JOINT RightLeg
    {
      OFFSET 43.5653 0 0
      CHANNELS 3 Zrotation Xrotation Yrotation
      JOINT RightFoot
      {
        OFFSET 40.6238 0 0
        CHANNELS 3 Zrotation Xrotation Yrotation
        JOINT RightToeBase
        {
          OFFSET 12.7242 0 0
          CHANNELS 3 Zrotation Xrotation Yrotation
          End Site
          {
            OFFSET 0 0 0
          }
        }
      }
    }
  }
  JOINT Spine
  {
    OFFSET 0.165834 0.87714 6.61349
    CHANNELS 3 Zrotation Xrotation Yrotation
    JOINT Spine1
    {
      OFFSET 7.38963 1.71661e-005 0
      CHANNELS 3 Zrotation Xrotation Yrotation
      JOINT Spine2
      {
        OFFSET 11.9445 1.14441e-005 0
        CHANNELS 3 Zrotation Xrotation Yrotation
        JOINT Spine3
        {
          OFFSET 14.7254 4.19617e-005 0
          CHANNELS 3 Zrotation Xrotation Yrotation
          JOINT Spine4
          {
            OFFSET 10.9679 0 0
            CHANNELS 3 Zrotation Xrotation Yrotation
            JOINT RightShoulder
            {
              OFFSET 2.46616 -1.6653 3.69651
              CHANNELS 3 Zrotation Xrotation Yrotation
              JOINT RightArm
              {
                OFFSET 13.0012 0 0
                CHANNELS 3 Zrotation Xrotation Yrotation
                JOINT RightForeArm
                {
                  OFFSET 28.7848 1.52588e-005 0
                  CHANNELS 3 Zrotation Xrotation Yrotation
                  JOINT RightHand
                  {
                    OFFSET 26.5688 1.52588e-005 0
                    CHANNELS 3 Zrotation Xrotation Yrotation
                    End Site
                    {
                      OFFSET 0 0 0
                    }
                  }
                }
              }
            }
            JOINT LeftShoulder
            {
              OFFSET 2.38034 -1.29275 -3.7523
              CHANNELS 3 Zrotation Xrotation Yrotation
              JOINT LeftArm
              {
                OFFSET 16.3182 6.10351e-005 0
                CHANNELS 3 Zrotation Xrotation Yrotation
                JOINT LeftForeArm
                {
                  OFFSET 27.0901 0 0
                  CHANNELS 3 Zrotation Xrotation Yrotation
                  JOINT LeftHand
                  {
                    OFFSET 24.5451 1.52588e-005 0
                    CHANNELS 3 Zrotation Xrotation Yrotation
                    End Site
                    {
                      OFFSET 0 0 0
                    }
                  }
                }
              }
            }
            JOINT Neck
            {
              OFFSET 5.0226 -0.0266342 0
              CHANNELS 3 Zrotation Xrotation Yrotation
              JOINT Head
              {
                OFFSET 6.69364 2.86102e-005 0
                CHANNELS 3 Zrotation Xrotation Yrotation
                End Site
                {
                  OFFSET 0 0 0
                }
              }
            }
          }
        }
      }
    }
  }
}
MOTION
Frames:	9
Frame Time:	0.0416667
-5.44586 98.7716 25.3164 -170.671 -87.1813 -164.163 -169.25 11.462 104.484 -32.2117 15.2677 1.51837 78.2994 12.5218 -3.51936 26.5079 -5.07201 14.1827 177.895 2.05027 102.278 -20.7911 -4.02848 3.6198 74.7101 -6.19923 -0.654258 16.5401 2.66699 6.47524 0.388009 7.75925 -91.1065 11.3526 0.256221 -2.22933 -0.320212 0.157872 -2.23845 -22.8421 0.914242 -2.0494 -2.82946 0.914236 -2.04941 87.5233 -33.543 -110.11 32.5726 -15.4147 -7.5532 3.07431 -27.5621 -14.0171 -24.9177 -1.10138 -6.48635 -91.2804 -55.4409 78.0354 -17.9768 19.1418 -18.8324 -3.69652 10.7392 -8.45648 3.75906 -0.235441 -7.07518 10.1043 -0.72161 -12.7371 -3.90926 2.17383 0.833621 
-5.47692 98.7646 24.8687 -153.286 -87.0886 -146.568 -169.161 11.904 104.61 -32.3672 14.5086 1.46062 78.4052 12.629 -3.67323 26.2526 -5.3061 14.3552 178.381 2.21318 102.661 -19.9882 -4.27277 3.13605 74.2748 -5.46768 -0.244466 16.4574 2.76558 6.17393 0.323123 7.73811 -91.1023 11.3937 0.128639 -2.20832 -0.279112 0.0313499 -2.21185 -22.8007 0.786247 -2.06769 -2.78804 0.786246 -2.06769 86.9995 -34.2268 -110.798 31.4516 -15.6665 -7.97423 2.9834 -26.9654 -13.3782 -25.1263 -1.02532 -6.72536 -90.7162 -55.1765 78.7746 -18.01 19.601 -19.5315 -4.06168 11.8198 -8.17974 6.44568 -0.163604 -5.30449 9.66191 -0.978968 -14.9292 -4.18399 2.38401 -0.102534 
-5.42828 98.6781 24.4376 -141.614 -87.1149 -135.033 -169.203 12.5637 104.377 -32.6582 14.1376 1.32259 78.3552 12.6729 -3.55011 26.6559 -5.07318 14.5481 178.344 2.73781 102.528 -19.7257 -4.68902 2.93897 74.2977 -5.36995 -0.875158 16.4807 2.39176 7.65284 0.241479 7.73151 -91.0822 11.4056 -0.024543 -2.15299 -0.267107 -0.119249 -2.14983 -22.7888 0.623508 -2.06091 -2.77613 0.623515 -2.06091 86.7269 -34.2542 -111.287 31.1421 -15.133 -8.16241 3.12255 -28.6144 -13.2913 -25.4804 -1.02369 -7.24755 -90.8787 -55.2064 78.5511 -17.9221 19.8575 -19.916 -4.06272 11.6909 -8.23477 4.68238 -0.235446 -6.69318 9.90512 -1.57242 -16.0479 -4.50893 2.10006 -0.516414 
-5.39325 98.6395 23.852 -132.009 -86.5016 -125.453 -169.164 12.844 104.259 -32.9689 13.5159 1.26046 78.2059 12.6218 -3.63119 26.9653 -5.05238 15.2429 178.359 3.2094 102.448 -20.0412 -5.03045 2.77027 74.0197 -4.95592 -0.148736 17.1626 2.25312 7.44287 0.166799 7.76217 -91.0491 11.3434 -0.157078 -2.0734 -0.329167 -0.248162 -2.06449 -22.8515 0.473189 -2.02481 -2.83884 0.473188 -2.02481 86.6703 -34.494 -111.29 31.0482 -15.3856 -8.21846 3.99708 -28.2875 -12.9068 -25.3599 -0.86702 -8.00306 -90.4865 -54.6835 78.9987 -18.3538 20.2182 -19.6824 -4.26762 9.88951 -8.31156 5.64875 -0.246714 -6.5991 10.1174 -1.82497 -17.2383 -4.69791 2.15181 -0.247986 
-5.16997 98.7227 23.5305 -125.459 -85.1911 -118.607 -168.915 12.4479 104.421 -33.0196 11.9245 1.20333 78.3853 12.4449 -4.28256 27.0863 -5.02404 15.4483 178.388 2.76919 102.419 -19.6181 -6.41978 2.78706 73.5087 -5.04005 -0.489144 17.214 2.08391 8.11047 0.209416 7.80551 -91.0821 11.257 -0.0868567 -2.14584 -0.415652 -0.181194 -2.13995 -22.9373 0.561926 -2.07281 -2.92462 0.561929 -2.07282 86.8171 -34.2825 -111.11 31.4438 -15.0053 -7.85523 3.63203 -28.7136 -12.9042 -25.8682 -1.03908 -7.17951 -90.5079 -54.6763 78.9669 -18.4722 19.1801 -19.6229 -3.62708 13.7181 -8.35314 3.47536 -0.19465 -6.40844 9.24205 -1.62337 -18.1405 -3.25706 2.40574 0.186694 
-4.91526 98.7385 23.4937 -123.503 -85.1675 -116.466 -169.039 12.6358 104.373 -33.2123 11.9302 1.25737 78.4807 12.6132 -4.00092 26.7632 -5.20681 15.2669 178.401 2.63397 102.368 -19.0525 -6.38261 2.82036 73.8161 -5.42972 -0.859126 16.9175 1.90742 9.19518 0.168665 7.80893 -91.1232 11.2488 -0.18698 -2.21773 -0.424003 -0.284378 -2.20737 -22.9444 0.488015 -2.17146 -2.93178 0.488019 -2.17146 86.9464 -34.1999 -110.906 31.2753 -14.3933 -7.93833 3.94742 -29.7206 -12.6561 -25.3372 -0.864086 -8.48741 -90.7984 -55.2049 78.6646 -17.6942 19.6104 -20.0207 -3.90801 13.2279 -8.48112 4.0505 -0.188085 -6.11032 9.54451 -1.71571 -18.335 -3.33739 2.41128 -0.118789 
-4.48264 98.8224 23.4922 -122.821 -85.0193 -115.822 -169.221 12.3926 103.965 -33.0804 11.5399 1.29053 78.3827 12.6363 -3.81003 26.8435 -5.21847 15.5064 178.06 2.38121 101.78 -18.6517 -6.30136 2.99492 73.4084 -4.9715 0.481619 18.1309 1.82854 8.1205 0.167661 7.80692 -91.158 11.2523 -0.205222 -2.28514 -0.420596 -0.305561 -2.27392 -22.9401 0.490868 -2.24124 -2.92744 0.49087 -2.24124 87.0758 -34.0218 -110.742 31.2304 -14.8584 -7.84501 3.96704 -28.7185 -13.0913 -25.5081 -0.826381 -8.35783 -91.1824 -55.5289 78.1915 -17.7766 19.6078 -20.1908 -3.9402 13.6603 -8.36949 3.87179 -0.165946 -5.75401 9.24788 -1.81616 -18.0303 -2.93234 2.2033 -0.892499 
-3.77811 98.9598 23.6337 -123.228 -84.803 -116.42 -169.549 11.6537 103.196 -32.6193 10.7417 1.36216 78.3427 12.636 -3.77963 26.9744 -5.17804 15.6954 177.778 1.98591 100.994 -18.3235 -6.52908 2.92821 72.7407 -4.44725 1.68282 19.5011 1.73297 6.83318 0.180567 7.8143 -91.156 11.2378 -0.17846 -2.28393 -0.435107 -0.278784 -2.27388 -22.9547 0.516027 -2.23205 -2.94203 0.516022 -2.23205 86.9221 -34.2718 -110.922 31.1256 -14.8097 -8.01833 3.98793 -27.5976 -12.5824 -25.4922 -0.926722 -7.44974 -91.3193 -55.4757 77.9882 -17.5038 20.0966 -20.5897 -4.3555 13.8934 -8.11975 4.23083 -0.132406 -5.10861 8.82023 -1.88941 -18.656 -2.75239 2.19584 -0.473682 
-2.76851 99.2074 23.8345 -124.086 -84.4547 -117.86 -170.321 10.2358 101.66 -31.5273 9.12374 1.56878 78.1542 12.527 -3.93634 26.7633 -5.46197 16.1291 177.498 1.53217 99.935 -18.0991 -7.4141 2.55588 72.6074 -4.84321 0.385961 19.0475 1.43067 8.80877 0.222204 7.83965 -91.1266 11.1883 -0.0814285 -2.2347 -0.484531 -0.179675 -2.22897 -23.005 0.593795 -2.15595 -2.99237 0.593794 -2.15595 86.621 -34.3473 -111.442 30.9243 -14.5735 -7.7941 3.90385 -29.5092 -13.0634 -24.8346 -1.09202 -7.14473 -91.3149 -55.3935 77.9768 -17.9858 19.9635 -20.8933 -4.23219 14.1562 -8.00784 3.56741 -0.154467 -5.60185 8.73078 -1.85913 -18.4209 -2.85635 2.1633 -0.865595 
